<svg id="Layer_2" data-name="Layer 2" xmlns="http://www.w3.org/2000/svg" viewBox="0 0 32 32"><defs><style>.cls-1{fill:#231f20;}</style></defs><title>sync</title><path class="cls-1" d="M23.31,18.91a7.86,7.86,0,0,1-12.88,2.66c-.15-.15-.28-.32-.42-.48.26,0,.53.08.8.15A2.19,2.19,0,1,0,11.88,17a16.67,16.67,0,0,0-7.27,0A2.19,2.19,0,0,0,3,18.57a16.67,16.67,0,0,0,0,7.27,2.19,2.19,0,1,0,4.26-1.06s-.08-.37-.16-.92c.16.18.32.37.49.54a11.85,11.85,0,0,0,20-5.77A17.71,17.71,0,0,1,23.31,18.91ZM29,6.16a2.19,2.19,0,1,0-4.26,1.06s.08.37.16.92c-.16-.18-.32-.37-.49-.54a11.85,11.85,0,0,0-20,5.77,17.7,17.7,0,0,1,4.25-.29,7.86,7.86,0,0,1,12.88-2.66c.15.15.28.32.42.48-.26,0-.53-.08-.8-.15A2.19,2.19,0,1,0,20.12,15a16.67,16.67,0,0,0,7.27,0,2.19,2.19,0,0,0,1.6-1.6A16.67,16.67,0,0,0,29,6.16Z"/></svg>