<svg id="Layer_2" data-name="Layer 2" xmlns="http://www.w3.org/2000/svg" viewBox="0 0 32 32"><defs><style>.cls-1{fill:#231f20;}</style></defs><title>help</title><path class="cls-1" d="M16,1A15,15,0,1,0,31,16,15,15,0,0,0,16,1Zm-.4,24a2.19,2.19,0,1,1,2.2-2.2A2.19,2.19,0,0,1,15.6,25Zm1.92-7.3a1.88,1.88,0,0,1-3.76,0c0-2.41,1.5-3.63,2.6-4.52,3-2.42-1.05-3-2.79-1.94a1.81,1.81,0,0,1-2.83-1.49,1.84,1.84,0,0,1,1-1.61,7.22,7.22,0,0,1,4-1.11c3.29,0,5.5,1.92,5.5,4.78C21.26,15.43,17.52,15.93,17.52,17.68Z"/></svg>