<?xml version="1.0" encoding="UTF-8"?>
<svg width="57px" height="37px" viewBox="0 0 57 37" version="1.1" xmlns="http://www.w3.org/2000/svg" xmlns:xlink="http://www.w3.org/1999/xlink">
    <!-- Generator: Sketch 42 (36781) - http://www.bohemiancoding.com/sketch -->
    <title>cafeteria</title>
    <desc>Created with Sketch.</desc>
    <defs></defs>
    <g id="Page-3" stroke="none" stroke-width="1" fill="none" fill-rule="evenodd">
        <g id="cafeteria" transform="translate(0.000000, 0.543975)" fill-rule="nonzero" fill="#808080">
            <path d="M11.0041667,1.02916667 L11.0041667,1.02916667 C10.45,1.02916667 9.975,1.58333333 9.975,2.21666667 L9.975,9.81666667 C9.975,10.1333333 9.7375,10.45 9.42083333,10.45 L9.42083333,10.45 C9.10416667,10.45 8.7875,10.2125 8.7875,9.81666667 L8.7875,2.21666667 C8.7875,1.58333333 8.3125,1.02916667 7.8375,1.02916667 L7.75833333,1.02916667 C7.20416667,1.02916667 6.80833333,1.58333333 6.80833333,2.21666667 L6.80833333,9.89583333 C6.80833333,10.2125 6.57083333,10.5291667 6.175,10.5291667 L6.175,10.5291667 C5.85833333,10.5291667 5.54166667,10.2916667 5.54166667,9.89583333 L5.54166667,2.21666667 C5.54166667,1.58333333 5.06666667,1.02916667 4.59166667,1.02916667 L4.59166667,1.02916667 C4.0375,1.02916667 3.64166667,1.58333333 3.64166667,2.21666667 L3.64166667,9.81666667 C3.64166667,10.1333333 3.325,10.45 3.00833333,10.45 L3.00833333,10.45 C2.69166667,10.45 2.45416667,10.2125 2.45416667,9.81666667 L2.45416667,2.21666667 C2.45416667,1.58333333 1.97916667,1.02916667 1.50416667,1.02916667 L1.34583333,1.02916667 C0.791666667,1.02916667 0.395833333,1.58333333 0.395833333,2.21666667 L0.395833333,11.4791667 C0.395833333,11.5583333 0.395833333,11.7166667 0.475,11.7958333 C0.633333333,13.0625 1.50416667,15.1208333 5.06666667,16.4666667 C5.06666667,16.4666667 5.30416667,16.5458333 5.4625,16.8625 L5.225,20.7416667 C5.06666667,20.9 4.9875,21.1375 4.9875,21.2958333 L4.0375,35.2291667 C4.0375,35.7041667 4.35416667,36.1 4.82916667,36.1 L7.52083333,36.1 C7.99583333,36.1 8.39166667,35.7041667 8.3125,35.2291667 L7.44166667,21.375 C7.44166667,21.1375 7.3625,20.9791667 7.20416667,20.8208333 L6.96666667,16.9416667 C7.125,16.625 7.3625,16.5458333 7.3625,16.5458333 C10.925,15.2 11.7166667,13.1416667 11.9541667,11.875 C11.9541667,11.7958333 12.0333333,11.6375 12.0333333,11.5583333 L12.0333333,2.21666667 C11.9541667,1.50416667 11.5583333,1.02916667 11.0041667,1.02916667 Z" id="Shape"></path>
            <path d="M51.3,0.158333333 C48.3708333,0.158333333 45.9958333,4.43333333 45.9958333,8.55 C45.9958333,11.875 47.5791667,14.725 49.7958333,15.675 C50.0333333,15.7541667 50.1125,15.9125 50.1125,16.15 L49.9541667,20.7416667 C49.9541667,20.9 49.9541667,20.9791667 49.875,21.1375 C49.875,21.2166667 49.875,21.2958333 49.875,21.375 L49.3208333,35.3875 C49.3208333,35.8625 49.6375,36.2583333 50.1125,36.2583333 L52.6458333,36.2583333 C53.1208333,36.2583333 53.4375,35.8625 53.4375,35.3875 L52.8041667,21.375 C52.8041667,21.2958333 52.8041667,21.2166667 52.725,21.1375 C52.6458333,20.9791667 52.6458333,20.9 52.6458333,20.7416667 L52.4875,16.15 C52.4875,15.9125 52.6458333,15.7541667 52.8041667,15.675 C55.0208333,14.8041667 56.6041667,11.9541667 56.6041667,8.55 C56.6041667,4.43333333 54.2291667,0.158333333 51.3,0.158333333 Z" id="Shape"></path>
            <path d="M29.3708333,2.92916667 C20.7416667,2.92916667 13.6958333,9.975 13.6958333,18.6041667 C13.6958333,27.2333333 20.7416667,34.2791667 29.3708333,34.2791667 C38,34.2791667 45.0458333,27.2333333 45.0458333,18.6041667 C45.0458333,9.975 38,2.92916667 29.3708333,2.92916667 Z M29.3708333,27.2333333 C24.5416667,27.2333333 20.6625,23.3541667 20.6625,18.525 C20.6625,13.6958333 24.5416667,9.81666667 29.3708333,9.81666667 C34.2,9.81666667 38.0791667,13.6958333 38.0791667,18.525 C38.0791667,23.3541667 34.2,27.2333333 29.3708333,27.2333333 Z" id="Shape"></path>
        </g>
    </g>
</svg>