<?xml version="1.0" encoding="UTF-8" standalone="no"?>
<svg width="32px" height="28px" viewBox="0 0 32 28" version="1.1" xmlns="http://www.w3.org/2000/svg" xmlns:xlink="http://www.w3.org/1999/xlink">
    <!-- Generator: Sketch 3.7.2 (28276) - http://www.bohemiancoding.com/sketch -->
    <title>Combined Shape</title>
    <desc>Created with Sketch.</desc>
    <defs></defs>
    <g id="Page-2" stroke="none" stroke-width="1" fill="none" fill-rule="evenodd">
        <g id="Group-10" transform="translate(-1299.000000, -134.000000)" fill="#808080">
            <path d="M1303.06881,136.571556 C1303.06881,136.826487 1303.21758,137.058134 1303.44686,137.164684 C1304.41015,137.602722 1305.42435,137.924345 1306.46736,138.121659 C1307.59363,138.333575 1308.73411,138.485902 1309.87774,138.574694 C1311.47086,138.70058 1313.0699,138.763721 1314.66617,138.763721 C1316.26521,138.763721 1317.86148,138.700975 1319.4546,138.574694 C1320.60139,138.485508 1321.73832,138.333575 1322.86735,138.121659 C1323.90799,137.924345 1324.92219,137.603117 1325.88469,137.164684 C1326.11752,137.058134 1326.26314,136.826487 1326.26314,136.571556 C1326.26314,136.316231 1326.11752,136.084189 1325.88469,135.978034 C1324.92219,135.539601 1323.9076,135.218767 1322.86735,135.021058 C1321.73832,134.808748 1320.60139,134.65721 1319.4546,134.568024 C1317.86148,134.442532 1316.26521,134.379391 1314.66617,134.379391 C1313.0699,134.379391 1311.47086,134.442532 1309.87774,134.568418 C1308.7345,134.657999 1307.59402,134.809142 1306.46736,135.021453 C1305.42396,135.219162 1304.41015,135.539601 1303.44686,135.978428 C1303.21758,136.084189 1303.06881,136.316231 1303.06881,136.571556 Z M1309.24752,158.79194 C1309.08454,158.774971 1308.92037,158.75445 1308.75739,158.729589 C1307.73451,159.044898 1306.87501,159.743391 1306.35607,160.680635 C1306.33042,160.723255 1306.30161,160.766665 1306.26965,160.806917 C1305.99498,161.129723 1305.51038,161.167608 1305.18678,160.892551 C1305.06958,160.795078 1304.96066,160.683398 1304.86871,160.559879 C1304.12642,159.599746 1304.304,158.215782 1305.26374,157.473879 C1301.21168,155.055197 1299.50097,150.0659 1301.20892,145.667364 C1299.97373,145.062792 1299.22315,143.775906 1299.30326,142.403386 C1299.4177,140.523373 1301.03134,139.090474 1302.91135,139.202549 L1302.63038,137.273601 C1302.76258,137.479992 1302.95397,137.646131 1303.18325,137.74913 C1304.19192,138.214003 1305.25229,138.54628 1306.34739,138.752277 C1307.49931,138.973269 1308.65952,139.127964 1309.8292,139.21715 C1311.43968,139.345799 1313.05293,139.406177 1314.66617,139.406177 C1316.28297,139.406177 1317.89305,139.346194 1319.50314,139.21715 C1320.67322,139.127964 1321.83619,138.973269 1322.98772,138.752277 C1324.08005,138.54628 1325.14042,138.214003 1326.15264,137.74913 C1326.37837,137.646131 1326.57055,137.479992 1326.70512,137.273601 L1326.42138,139.202549 C1327.7943,139.122044 1329.08355,139.869867 1329.68773,141.108213 C1330.51645,142.799199 1329.81717,144.839037 1328.12381,145.667758 C1329.83414,150.066295 1328.11987,155.055591 1324.069,157.474273 C1324.18936,157.568984 1324.30025,157.674745 1324.40128,157.79195 C1325.18896,158.718145 1325.07412,160.108028 1324.14635,160.892946 C1324.10846,160.927279 1324.06545,160.956087 1324.02243,160.981737 C1323.6503,161.185366 1323.18385,161.05356 1322.97746,160.68103 C1322.45812,159.743786 1321.59862,159.044898 1320.57574,158.729983 C1320.41237,158.754845 1320.24899,158.775366 1320.08561,158.792335 C1316.48028,159.155788 1312.85246,159.155788 1309.24752,158.79194 Z" id="Combined-Shape"></path>
        </g>
    </g>
</svg>