<?xml version="1.0" encoding="UTF-8"?>
<svg width="68px" height="26px" viewBox="0 0 68 26" version="1.1" xmlns="http://www.w3.org/2000/svg" xmlns:xlink="http://www.w3.org/1999/xlink">
    <!-- Generator: Sketch 42 (36781) - http://www.bohemiancoding.com/sketch -->
    <title>centralperk</title>
    <desc>Created with Sketch.</desc>
    <defs></defs>
    <g id="Page-3" stroke="none" stroke-width="1" fill="none" fill-rule="evenodd">
        <g id="centralperk" fill-rule="nonzero" fill="#808080">
            <g id="coffecup" transform="translate(38.000000, 0.000000)">
                <path d="M27.1485,13.4481377 L23.0025,13.4481377 L23.5995,11.41 L0.3985,11.41 L3.8985,23.3575145 C3.8985,24.5410379 5.471,25.5 7.4095,25.5 L16.589,25.5 C18.5275,25.5 20.0995,24.5407328 20.0995,23.3575145 L20.901,20.6221994 L27.1485,20.6221994 C28.524,20.6221994 29.6425,19.9396674 29.6425,19.1003086 L29.6425,14.9700286 C29.643,14.1306698 28.524,13.4481377 27.1485,13.4481377 Z M27.643,18.7918419 L21.4375,18.7918419 L22.4665,15.2788003 L27.643,15.2788003 L27.643,18.7918419 Z" id="Shape"></path>
                <path d="M4.324,8.4355 L6.324,8.4355 C6.324,8.10104951 6.4015,7.99650821 6.608,7.71718692 C6.893,7.33169088 7.324,6.7489548 7.324,5.73171894 C7.324,4.71407472 6.893,4.13174701 6.608,3.7458426 C6.401,3.46611295 6.324,3.36157165 6.324,3.02589606 C6.324,2.69022048 6.4015,2.58567918 6.608,2.30594953 C6.893,1.92045348 7.324,1.33771741 7.324,0.320073184 L5.324,0.320073184 C5.324,0.655340402 5.2465,0.759881703 5.04,1.03961135 C4.755,1.42551576 4.324,2.00825184 4.324,3.02589606 C4.324,4.04354029 4.755,4.62627636 5.04,5.01218077 C5.247,5.29191042 5.324,5.39645173 5.324,5.73171894 C5.324,6.06616943 5.2465,6.17071073 5.04,6.45003202 C4.755,6.83552807 4.324,7.41826414 4.324,8.4355 Z" id="Shape"></path>
                <path d="M9.999,8.4355 L11.999,8.4355 C11.999,8.10104951 12.0765,7.99650821 12.283,7.71718692 C12.568,7.33169088 12.999,6.7489548 12.999,5.73171894 C12.999,4.71407472 12.568,4.13174701 12.283,3.7458426 C12.076,3.46611295 11.999,3.36157165 11.999,3.02589606 C11.999,2.69022048 12.0765,2.58567918 12.283,2.30594953 C12.568,1.92045348 12.999,1.33771741 12.999,0.320073184 L10.999,0.320073184 C10.999,0.655340402 10.9215,0.759881703 10.715,1.03961135 C10.43,1.42551576 9.999,2.00825184 9.999,3.02589606 C9.999,4.04354029 10.43,4.62627636 10.715,5.01218077 C10.922,5.29191042 10.999,5.39645173 10.999,5.73171894 C10.999,6.06616943 10.9215,6.17071073 10.715,6.45003202 C10.43,6.83552807 9.999,7.41826414 9.999,8.4355 Z" id="Shape"></path>
                <path d="M15.674,8.4355 L17.674,8.4355 C17.674,8.10104951 17.751,7.99650821 17.9575,7.71718692 C18.2425,7.33169088 18.674,6.7489548 18.674,5.73171894 C18.674,4.71407472 18.2435,4.13174701 17.958,3.7458426 C17.751,3.46611295 17.674,3.36157165 17.674,3.02589606 C17.674,2.69022048 17.751,2.58567918 17.958,2.30594953 C18.243,1.92045348 18.674,1.33771741 18.674,0.320073184 L16.674,0.320073184 C16.674,0.655340402 16.597,0.759881703 16.39,1.03961135 C16.105,1.42551576 15.674,2.00825184 15.674,3.02589606 C15.674,4.04354029 16.1045,4.62627636 16.39,5.01218077 C16.597,5.29191042 16.674,5.39645173 16.674,5.73171894 C16.674,6.06616943 16.597,6.17071073 16.3905,6.45003202 C16.105,6.83552807 15.674,7.41826414 15.674,8.4355 Z" id="Shape"></path>
            </g>
            <g id="coffecup" transform="translate(15.000000, 13.000000) scale(-1, 1) translate(-15.000000, -13.000000) ">
                <path d="M27.1485,13.4481377 L23.0025,13.4481377 L23.5995,11.41 L0.3985,11.41 L3.8985,23.3575145 C3.8985,24.5410379 5.471,25.5 7.4095,25.5 L16.589,25.5 C18.5275,25.5 20.0995,24.5407328 20.0995,23.3575145 L20.901,20.6221994 L27.1485,20.6221994 C28.524,20.6221994 29.6425,19.9396674 29.6425,19.1003086 L29.6425,14.9700286 C29.643,14.1306698 28.524,13.4481377 27.1485,13.4481377 Z M27.643,18.7918419 L21.4375,18.7918419 L22.4665,15.2788003 L27.643,15.2788003 L27.643,18.7918419 Z" id="Shape"></path>
                <path d="M4.324,8.4355 L6.324,8.4355 C6.324,8.10104951 6.4015,7.99650821 6.608,7.71718692 C6.893,7.33169088 7.324,6.7489548 7.324,5.73171894 C7.324,4.71407472 6.893,4.13174701 6.608,3.7458426 C6.401,3.46611295 6.324,3.36157165 6.324,3.02589606 C6.324,2.69022048 6.4015,2.58567918 6.608,2.30594953 C6.893,1.92045348 7.324,1.33771741 7.324,0.320073184 L5.324,0.320073184 C5.324,0.655340402 5.2465,0.759881703 5.04,1.03961135 C4.755,1.42551576 4.324,2.00825184 4.324,3.02589606 C4.324,4.04354029 4.755,4.62627636 5.04,5.01218077 C5.247,5.29191042 5.324,5.39645173 5.324,5.73171894 C5.324,6.06616943 5.2465,6.17071073 5.04,6.45003202 C4.755,6.83552807 4.324,7.41826414 4.324,8.4355 Z" id="Shape"></path>
                <path d="M9.999,8.4355 L11.999,8.4355 C11.999,8.10104951 12.0765,7.99650821 12.283,7.71718692 C12.568,7.33169088 12.999,6.7489548 12.999,5.73171894 C12.999,4.71407472 12.568,4.13174701 12.283,3.7458426 C12.076,3.46611295 11.999,3.36157165 11.999,3.02589606 C11.999,2.69022048 12.0765,2.58567918 12.283,2.30594953 C12.568,1.92045348 12.999,1.33771741 12.999,0.320073184 L10.999,0.320073184 C10.999,0.655340402 10.9215,0.759881703 10.715,1.03961135 C10.43,1.42551576 9.999,2.00825184 9.999,3.02589606 C9.999,4.04354029 10.43,4.62627636 10.715,5.01218077 C10.922,5.29191042 10.999,5.39645173 10.999,5.73171894 C10.999,6.06616943 10.9215,6.17071073 10.715,6.45003202 C10.43,6.83552807 9.999,7.41826414 9.999,8.4355 Z" id="Shape"></path>
                <path d="M15.674,8.4355 L17.674,8.4355 C17.674,8.10104951 17.751,7.99650821 17.9575,7.71718692 C18.2425,7.33169088 18.674,6.7489548 18.674,5.73171894 C18.674,4.71407472 18.2435,4.13174701 17.958,3.7458426 C17.751,3.46611295 17.674,3.36157165 17.674,3.02589606 C17.674,2.69022048 17.751,2.58567918 17.958,2.30594953 C18.243,1.92045348 18.674,1.33771741 18.674,0.320073184 L16.674,0.320073184 C16.674,0.655340402 16.597,0.759881703 16.39,1.03961135 C16.105,1.42551576 15.674,2.00825184 15.674,3.02589606 C15.674,4.04354029 16.1045,4.62627636 16.39,5.01218077 C16.597,5.29191042 16.674,5.39645173 16.674,5.73171894 C16.674,6.06616943 16.597,6.17071073 16.3905,6.45003202 C16.105,6.83552807 15.674,7.41826414 15.674,8.4355 Z" id="Shape"></path>
            </g>
        </g>
    </g>
</svg>