<?xml version="1.0" encoding="UTF-8"?>
<svg width="45px" height="30px" viewBox="0 0 45 30" version="1.1" xmlns="http://www.w3.org/2000/svg" xmlns:xlink="http://www.w3.org/1999/xlink">
    <!-- Generator: Sketch 42 (36781) - http://www.bohemiancoding.com/sketch -->
    <title>chess</title>
    <desc>Created with Sketch.</desc>
    <defs></defs>
    <g id="Page-3" stroke="none" stroke-width="1" fill="none" fill-rule="evenodd">
        <g id="chess" fill-rule="nonzero" fill="#808080">
            <path d="M43.7073529,27.7632353 L43.7073529,26.2389706 L43.4219118,26.2389706 L43.4219118,25.9102941 C43.4219118,25.9102941 43.8714706,25.9826471 43.8714706,24.9132353 C43.8714706,23.8460294 43.6045588,22.6764706 41.3002941,21.6591176 C41.2839706,21.6516176 41.2725,21.6432353 41.2570588,21.6348529 L41.5208824,21.6348529 L41.5208824,20.6576471 L41.0439706,20.6576471 L40.5255882,9.04014706 L41.0907353,9.04014706 L41.0907353,8.46088235 L41.9033824,8.46088235 L41.9033824,3.49764706 L40.0283824,3.49764706 L40.0283824,4.72147059 L38.8685294,4.72147059 L38.8685294,3.49764706 L35.8248529,3.49764706 L35.8248529,4.72147059 L34.6645588,4.72147059 L34.6645588,3.49764706 L32.7895588,3.49764706 L32.7895588,8.46176471 L33.6022059,8.46176471 L33.6022059,9.04102941 L34.1673529,9.04102941 L33.6494118,20.6585294 L33.1720588,20.6585294 L33.1720588,21.6357353 L33.435,21.6357353 C33.4195588,21.6441176 33.4072059,21.6525 33.3908824,21.6604412 C31.0870588,22.6773529 30.8214706,23.8473529 30.8214706,24.9141176 C30.8214706,25.9835294 31.2705882,25.9111765 31.2705882,25.9111765 L31.2705882,26.2394118 L30.9838235,26.2394118 L30.9838235,27.7636765 L30.5739706,27.7636765 L30.5739706,29.7489706 L44.1180882,29.7489706 L44.1180882,27.7636765 L43.7073529,27.7636765 L43.7073529,27.7632353 Z" id="Shape"></path>
            <path d="M28.0901471,28.1889706 L28.0901471,26.9920588 L27.8655882,26.9920588 L27.8655882,26.7326471 C27.8655882,26.7326471 28.2185294,26.7904412 28.2185294,25.9504412 C28.2185294,25.1126471 28.0076471,24.1923529 26.1988235,23.3929412 C26.1105882,23.3541176 26.0316176,23.3091176 25.9592647,23.2592647 L25.9592647,22.6067647 L25.5335294,22.6067647 C24.4561765,19.6204412 24.5311765,17.2601471 24.5810294,16.6054412 L24.9507353,16.6054412 L24.9507353,15.9410294 L24.1588235,15.9410294 C25.1947059,15.5188235 25.9261765,14.5054412 25.9261765,13.3177941 C25.9261765,11.7525 24.6569118,10.4836765 23.0916176,10.4836765 C21.5263235,10.4836765 20.2575,11.7525 20.2575,13.3177941 C20.2575,14.505 20.9885294,15.5188235 22.0244118,15.9410294 L21.2338235,15.9410294 L21.2338235,16.6054412 L21.6022059,16.6054412 C21.6525,17.2592647 21.7270588,19.6204412 20.6497059,22.6067647 L20.2239706,22.6067647 L20.2239706,23.2592647 C20.1516176,23.3077941 20.0730882,23.3541176 19.9835294,23.3929412 C18.1738235,24.1923529 17.9647059,25.1117647 17.9647059,25.9504412 C17.9647059,26.7904412 18.3176471,26.7326471 18.3176471,26.7326471 L18.3176471,26.9920588 L18.0930882,26.9920588 L18.0930882,28.1889706 L17.7710294,28.1889706 L17.7710294,29.7485294 L28.4130882,29.7485294 L28.4130882,28.1889706 L28.0901471,28.1889706 Z" id="Shape"></path>
            <path d="M15.1425,27.7632353 L15.1425,26.2389706 L14.8566176,26.2389706 L14.8566176,25.9102941 C14.8566176,25.9102941 15.3057353,25.9826471 15.3057353,24.9132353 C15.3057353,23.8460294 15.0388235,22.6764706 12.7345588,21.6591176 C12.6216176,21.6097059 12.5219118,21.5519118 12.4305882,21.4892647 L12.4305882,20.7895588 C12.9763235,20.6157353 13.5273529,20.4101471 14.0819118,20.1383824 C14.0819118,20.1383824 15.3048529,14.2063235 12.8355882,7.8525 C11.8283824,5.26058824 10.5313235,3.89161765 9.24485294,3.28455882 C8.77852941,2.62102941 7.21455882,0.500735294 6.08867647,0.250147059 C6.08867647,0.250147059 6.44602941,1.68529412 6.54132353,3.00132353 C5.62985294,3.22367647 4.87323529,3.73544118 4.44,4.28602941 C3.09132353,5.99911765 2.03911765,6.88235294 0.612794118,7.48632353 C-0.813088235,8.09161765 0.556764706,11.1357353 1.61955882,11.0616176 C2.33205882,11.0122059 3.23691176,10.2913235 4.46691176,10.5097059 C5.69647059,10.7276471 6.67544118,10.2547059 6.67544118,10.2547059 L6.9225,10.8957353 C6.9225,10.8957353 3.42,14.7683824 3.35426471,20.3902941 C3.35426471,20.3902941 4.02926471,20.6929412 5.13088235,20.9642647 L5.13088235,21.4883824 C5.03867647,21.5505882 4.93852941,21.6079412 4.82514706,21.6591176 C2.52132353,22.6760294 2.25529412,23.8460294 2.25529412,24.9136765 C2.25529412,25.9822059 2.70397059,25.9098529 2.70397059,25.9098529 L2.70397059,26.2380882 L2.41808824,26.2380882 L2.41808824,27.7623529 L2.00823529,27.7623529 L2.00823529,29.7476471 L15.5523529,29.7476471 L15.5523529,27.7623529 L15.1425,27.7623529 L15.1425,27.7632353 Z" id="Shape"></path>
        </g>
    </g>
</svg>