<?xml version="1.0" encoding="UTF-8"?>
<svg width="32px" height="30px" viewBox="0 0 32 30" version="1.1" xmlns="http://www.w3.org/2000/svg" xmlns:xlink="http://www.w3.org/1999/xlink">
    <!-- Generator: Sketch 42 (36781) - http://www.bohemiancoding.com/sketch -->
    <title>foosball</title>
    <desc>Created with Sketch.</desc>
    <defs></defs>
    <g id="Page-3" stroke="none" stroke-width="1" fill="none" fill-rule="evenodd">
        <g id="foosball" fill-rule="nonzero" fill="#808080">
            <path d="M17.57248,7.01984 C18.60416,6.38624 19.29952,5.1968 19.29952,3.83296 C19.29952,1.80416 17.89728,0.29536 15.99968,0.29536 C14.10272,0.29536 12.7008,1.80384 12.7008,3.83296 C12.7008,5.19712 13.39616,6.38624 14.42816,7.02016 C13.85824,7.23488 13.1296,7.55392 12.49248,7.97824 C12.24896,9.72288 11.96,11.43424 12.3712,13.12608 C13.37184,14.05024 13.38016,15.0512 13.17344,16.09952 C13.17344,16.09952 13.16448,16.19904 13.16928,16.19936 L14.2752,21.5728 L13.3168,21.5728 C13.09248,21.57344 12.9088,21.7568 12.9088,21.98112 L12.9088,25.7824 C12.9088,26.0064 13.09152,26.21952 13.3152,26.2512 C15.09664,26.49536 16.90368,26.49536 18.6848,26.2512 C18.90848,26.21952 19.0912,26.0064 19.0912,25.7824 L19.0912,21.98112 C19.0912,21.7568 18.90752,21.57344 18.6832,21.5728 L17.72544,21.5728 L18.83072,16.19936 C18.83616,16.19872 18.82656,16.09952 18.82656,16.09952 C18.61984,15.0512 18.62816,14.05024 19.62912,13.12608 C20.04,11.43392 19.75136,9.72288 19.50784,7.97824 C18.87072,7.5536 18.14208,7.23424 17.57248,7.01984 Z" id="Shape"></path>
            <ellipse id="Oval" cx="6.42368" cy="25.6688" rx="3.74176" ry="3.74176"></ellipse>
            <path d="M0,8.19968 L0,8.35968 L0,11.71328 L0,11.87328 L0,12.03328 L10.92928,12.03328 C10.84032,10.75296 11.19968,8.03968 11.19968,8.03968 L0,8.03968 L0,8.19968 Z" id="Shape"></path>
            <path d="M20.81984,8.03968 C20.81984,8.03968 21.17888,10.75264 21.08992,12.03328 L32,12.03328 L32,11.87328 L32,11.71328 L32,8.35968 L32,8.19968 L32,8.03968 L20.81984,8.03968 Z" id="Shape"></path>
        </g>
    </g>
</svg>