<?xml version="1.0" encoding="UTF-8"?>
<svg width="30px" height="54px" viewBox="0 0 30 54" version="1.1" xmlns="http://www.w3.org/2000/svg" xmlns:xlink="http://www.w3.org/1999/xlink">
    <!-- Generator: Sketch 42 (36781) - http://www.bohemiancoding.com/sketch -->
    <title>golf</title>
    <desc>Created with Sketch.</desc>
    <defs></defs>
    <g id="Page-1" stroke="none" stroke-width="1" fill="none" fill-rule="evenodd">
        <g id="golf" fill-rule="nonzero" fill="#808080">
            <g id="Page-2">
                <g id="Group-10">
                    <path d="M9.2276705,9.276215 C7.0288208,9.276215 5.2544698,11.031877 5.2544698,13.191748 C5.2544698,15.359094 7.0288208,17.111018 9.2276705,17.111018 C11.4131712,17.111018 13.1891241,15.35856 13.1891241,13.191748 C13.1885902,11.031877 11.4131712,9.276215 9.2276705,9.276215 Z M29.3585186,17.022915 C29.2095436,16.177121 28.5169967,15.697091 28.4748139,15.666121 L5.1503475,0.288056 L2.9835354,3.42721 C2.5798612,4.046071 2.7560682,4.868904 3.3749286,5.27151 C3.9905851,5.678922 4.8118165,5.513395 5.2154907,4.895068 L6.4836471,3.081204 L25.4280348,15.581221 L9.9074024,18.374903 C8.8085115,18.559654 8.0129102,19.658544 8.2579981,20.734475 L11.6358328,33.791947 L0.7109992,50.177596 C0.0579654,51.296243 0.4536302,52.729393 1.5834908,53.37068 C2.7245646,54.019976 4.1694619,53.624845 4.8267674,52.506732 C4.8267674,52.506732 16.2204184,35.371937 16.2626013,35.264077 C16.2626013,35.264077 16.8504919,37.641803 16.8504919,37.65355 L15.1407501,50.508117 C14.9260979,51.788021 15.7943178,52.983025 17.0854345,53.198211 C18.3765512,53.412863 19.6025247,52.55639 19.8171769,51.284496 L21.5856544,38.061496 C21.6395844,37.722965 21.5701695,36.981828 21.4932792,36.655044 L17.5964348,21.172857 L27.7336766,19.347245 C28.8170826,19.155554 29.5507444,18.110593 29.3585186,17.022915 Z" id="Combined-Shape"></path>
                </g>
            </g>
        </g>
    </g>
</svg>