<?xml version="1.0" encoding="UTF-8"?>
<svg width="45px" height="24px" viewBox="0 0 45 24" version="1.1" xmlns="http://www.w3.org/2000/svg" xmlns:xlink="http://www.w3.org/1999/xlink">
    <!-- Generator: Sketch 42 (36781) - http://www.bohemiancoding.com/sketch -->
    <title>gym</title>
    <desc>Created with Sketch.</desc>
    <defs></defs>
    <g id="Page-3" stroke="none" stroke-width="1" fill="none" fill-rule="evenodd">
        <g id="gym" fill-rule="nonzero" fill="#808080">
            <path d="M44.7286224,18.7397449 C44.7286224,20.035102 43.8221939,21.0852551 42.7045408,21.0852551 L41.5051531,21.0852551 C40.3861224,21.0852551 39.4810714,20.035102 39.4810714,18.7397449 L39.4810714,5.09877551 C39.4810714,3.80295918 40.3870408,2.75326531 41.5051531,2.75326531 L42.7045408,2.75326531 C43.8226531,2.75326531 44.7286224,3.80341837 44.7286224,5.09877551 L44.7286224,18.7397449 Z" id="Shape"></path>
            <path d="M0.259897959,18.7397449 C0.259897959,20.035102 1.16586735,21.0852551 2.28352041,21.0852551 L3.48290816,21.0852551 C4.60147959,21.0852551 5.50744898,20.035102 5.50744898,18.7397449 L5.50744898,5.09877551 C5.50744898,3.80295918 4.60147959,2.75326531 3.48290816,2.75326531 L2.28397959,2.75326531 C1.16586735,2.75326531 0.260357143,3.80341837 0.260357143,5.09877551 L0.259897959,18.7397449 L0.259897959,18.7397449 Z" id="Shape"></path>
            <path d="M36.2442857,0.364132653 L34.8442347,0.364132653 C33.5396939,0.364132653 32.4831122,1.58877551 32.4831122,3.10086735 L32.4831122,8.57892857 L12.5054082,8.57892857 L12.5054082,3.10086735 C12.5054082,1.58877551 11.4483673,0.364132653 10.1438265,0.364132653 L8.74377551,0.364132653 C7.43969388,0.364132653 6.38219388,1.58877551 6.38219388,3.10086735 L6.38219388,20.7376531 C6.38219388,22.2492857 7.43969388,23.4739286 8.74377551,23.4739286 L10.1438265,23.4739286 C11.4479082,23.4739286 12.5054082,22.2492857 12.5054082,20.7376531 L12.5054082,15.2595918 L32.4831122,15.2595918 L32.4831122,20.7376531 C32.4831122,22.2492857 33.5396939,23.4739286 34.8442347,23.4739286 L36.2442857,23.4739286 C37.5483673,23.4739286 38.6067857,22.2492857 38.6067857,20.7376531 L38.6067857,3.10086735 C38.6058673,1.58877551 37.5479082,0.364132653 36.2442857,0.364132653 Z M32.6906633,13.0196939 L32.3816327,13.0196939 L12.6018367,13.0196939 L12.6018367,10.1465816 L32.3816327,10.1465816 L32.6911224,10.1465816 C32.6906633,10.8730102 32.6906633,12.0866327 32.6906633,13.0196939 Z" id="Shape"></path>
        </g>
    </g>
</svg>