<?xml version="1.0" encoding="UTF-8"?>
<svg width="26px" height="30px" viewBox="0 0 26 30" version="1.1" xmlns="http://www.w3.org/2000/svg" xmlns:xlink="http://www.w3.org/1999/xlink">
    <!-- Generator: Sketch 42 (36781) - http://www.bohemiancoding.com/sketch -->
    <title>kaapi</title>
    <desc>Created with Sketch.</desc>
    <defs></defs>
    <g id="Page-3" stroke="none" stroke-width="1" fill="none" fill-rule="evenodd">
        <g id="kaapi" fill-rule="nonzero" fill="#808080">
            <path d="M9.6765,7.6329 C9.8472,7.968 10.0374,8.2566 10.2252,8.5098 C10.6026,9.015 10.9761,9.3741 11.2497,9.6111 C11.3829,9.7323 11.5002,9.8163 11.5764,9.8757 C11.6541,9.9339 11.6985,9.9618 11.6985,9.9618 C11.6985,9.9618 11.6793,9.9141 11.643,9.8241 C11.607,9.7359 11.5542,9.606 11.4867,9.441 C11.3559,9.1125 11.1651,8.6499 10.9743,8.1051 C10.8795,7.8333 10.7856,7.5399 10.71,7.2369 C10.635,6.9348 10.5834,6.6198 10.5789,6.3312 C10.5789,6.0417 10.6344,5.7969 10.7478,5.6418 C10.77,5.598 10.8105,5.5656 10.8402,5.5263 C10.8855,5.4954 10.9122,5.4543 10.9653,5.4237 L11.0358,5.3724 L11.1552,5.2992 L11.4093,5.1432 C11.7354,4.9377 12.0717,4.7358 12.4041,4.5129 C12.5709,4.4061 12.735,4.2936 12.8958,4.176 C13.0569,4.0635 13.2168,3.942 13.3698,3.8202 C13.5228,3.6981 13.674,3.5691 13.8156,3.4416 C13.9542,3.3 14.0958,3.1788 14.2194,3.0309 C14.343,2.8848 14.4654,2.7495 14.5656,2.5911 C14.616,2.5134 14.6688,2.4429 14.7132,2.3646 C14.7555,2.2833 14.7975,2.2047 14.8347,2.1267 C14.9178,1.9782 14.9568,1.8009 15.0054,1.653 C15.0426,1.4973 15.051,1.3395 15.0657,1.2018 C15.0588,1.059 15.0441,0.9273 15.027,0.8109 C15.0033,0.6945 14.958,0.5931 14.9295,0.5034 C14.9133,0.4593 14.8983,0.4176 14.8848,0.3783 C14.8644,0.3411 14.8416,0.3078 14.8227,0.2769 C14.784,0.216 14.7513,0.1644 14.7249,0.1224 C14.6706,0.0426 14.6418,0 14.6418,0 C14.6418,0 14.643,0.0522 14.6454,0.15 C14.6472,0.1968 14.6493,0.2547 14.6517,0.3228 C14.6526,0.3558 14.6538,0.3912 14.655,0.429 C14.6502,0.4665 14.6457,0.5064 14.6403,0.5487 C14.6271,0.6315 14.6256,0.7209 14.6004,0.8136 C14.5653,0.9057 14.5425,1.0017 14.5059,1.0986 C14.4483,1.1919 14.4114,1.2915 14.3442,1.3857 C14.2641,1.4769 14.2173,1.5789 14.1147,1.6668 C14.0682,1.7118 14.0247,1.7595 13.98,1.8063 C13.9329,1.8528 13.8738,1.8957 13.8213,1.9413 C13.7199,2.0343 13.5951,2.1219 13.4709,2.211 C13.3491,2.3013 13.2054,2.3871 13.071,2.478 C12.9222,2.5611 12.7833,2.6568 12.6273,2.7435 C12.3129,2.9214 11.988,3.1053 11.658,3.2919 C11.3226,3.4779 10.9758,3.6834 10.6245,3.8952 L10.374,4.0566 L10.2417,4.1421 L10.0725,4.2672 C9.8496,4.4373 9.6501,4.6677 9.5118,4.9266 C9.4359,5.0535 9.3885,5.1894 9.3402,5.3235 C9.3078,5.4582 9.2712,5.5944 9.2619,5.7246 C9.2277,5.9886 9.2454,6.2334 9.2817,6.4614 C9.3558,6.9144 9.5091,7.2969 9.6765,7.6329 Z" id="Shape"></path>
            <path d="M14.8146,3.591 C14.7531,3.6423 14.6928,3.6957 14.613,3.7449 C14.5443,3.7965 14.4597,3.8481 14.376,3.8988 C14.2074,4.0026 14.0142,4.1058 13.8084,4.2156 C13.6014,4.3251 13.3824,4.4364 13.1547,4.5618 C12.9282,4.6809 12.6927,4.8198 12.4521,4.9635 L12.2835,5.0733 L12.192,5.133 L12.0621,5.2293 C11.8905,5.3604 11.736,5.5428 11.6283,5.7456 C11.5149,5.946 11.457,6.1665 11.4396,6.3654 C11.4165,6.5679 11.4324,6.7503 11.4633,6.9174 C11.5254,7.2498 11.6457,7.5186 11.7732,7.7508 C11.9037,7.9818 12.0477,8.1756 12.1893,8.343 C12.474,8.6769 12.7554,8.9022 12.963,9.0471 C13.0629,9.1221 13.1535,9.1701 13.2108,9.2058 C13.2699,9.24 13.3041,9.2556 13.3041,9.2556 C13.3041,9.2556 13.2948,9.2202 13.2777,9.1542 C13.2576,9.0906 13.2366,8.9919 13.2,8.8767 C13.1352,8.6403 13.0368,8.3118 12.9384,7.9386 C12.8895,7.7523 12.8418,7.554 12.8067,7.3551 C12.7716,7.1574 12.753,6.9561 12.762,6.7884 C12.7734,6.6183 12.8187,6.5064 12.8661,6.462 C12.8856,6.4335 12.9165,6.4173 12.9564,6.387 C12.9675,6.3804 12.978,6.3729 12.9879,6.3645 L13.0662,6.3171 L13.2381,6.213 C13.4535,6.0756 13.6785,5.94 13.902,5.7837 C14.1252,5.6358 14.3445,5.4678 14.5518,5.2938 C14.6544,5.2059 14.7582,5.1132 14.8524,5.0202 C14.9466,4.9164 15.0417,4.8291 15.1251,4.7202 C15.294,4.5114 15.441,4.2903 15.5349,4.0518 C15.5883,3.942 15.6129,3.8103 15.6405,3.7014 C15.6609,3.5865 15.6621,3.4704 15.6648,3.3705 C15.6534,3.2667 15.6369,3.1725 15.6171,3.0897 C15.5931,3.0075 15.555,2.9373 15.5289,2.8758 C15.5148,2.8455 15.5016,2.8173 15.4887,2.7903 C15.4722,2.7654 15.4536,2.7435 15.4377,2.7228 C15.4059,2.6832 15.3786,2.649 15.3567,2.6217 C15.3123,2.5689 15.2871,2.544 15.2871,2.544 C15.2871,2.544 15.2835,2.5809 15.2766,2.6496 C15.2667,2.7165 15.2724,2.8104 15.2388,2.9211 C15.2226,2.9757 15.2145,3.0339 15.1893,3.0924 C15.1572,3.1503 15.1353,3.2097 15.1038,3.2673 C15.0582,3.3231 15.0288,3.3804 14.9784,3.4341 C14.9199,3.4851 14.8866,3.5415 14.8146,3.591 Z" id="Shape"></path>
            <path d="M25.1748,19.3632 L19.2972,19.3632 L20.5275,11.9673 C20.5275,11.2881 22.4367,10.7373 21.7575,10.7373 L3.5637,10.7373 C2.8842,10.7373 4.7937,11.2881 4.7937,11.9673 L6.0237,19.3632 L0.1461,19.3632 C-0.5331,19.3632 1.3761,19.914 1.3761,20.5935 L1.3761,28.77 C1.3761,29.4492 1.9266,30 2.6061,30 L22.7148,30 C23.3946,30 23.9448,29.4492 23.9448,28.77 L23.9448,20.5935 C23.9445,19.914 25.8543,19.3632 25.1748,19.3632 Z M22.1145,24.6243 L22.0908,25.4364 C22.0836,25.707 22.0638,25.9782 22.0512,26.2485 C22.0377,26.5194 22.0128,26.7909 21.993,27.0618 C21.9681,27.3327 21.9396,27.6042 21.9036,27.8757 C21.8505,27.6069 21.8061,27.3378 21.7644,27.069 C21.7281,26.7996 21.6864,26.5305 21.6564,26.2611 C21.6273,25.9917 21.591,25.7223 21.5676,25.4529 L21.4938,24.6438 C21.4605,24.1041 21.4128,23.5647 21.3963,23.0247 L21.3615,22.2144 L21.3525,21.75 C20.2344,21.7467 19.1172,21.7356 17.9994,21.7203 C16.7643,21.7092 15.5292,21.681 14.2938,21.6564 L12.441,21.6096 L10.5885,21.5526 C9.3534,21.5106 8.1183,21.4602 6.8832,21.3924 C8.1183,21.3237 9.3534,21.2739 10.5885,21.2319 L12.441,21.1749 L14.2938,21.1278 C15.5289,21.1032 16.764,21.075 17.9994,21.0645 C19.2345,21.0474 20.4696,21.0339 21.705,21.033 L22.0503,21.0324 L22.0644,21.3816 L22.098,22.1916 L22.113,23.0025 C22.1292,23.5425 22.1154,24.0834 22.1145,24.6243 Z" id="Shape"></path>
        </g>
    </g>
</svg>