<?xml version="1.0" encoding="UTF-8"?>
<svg width="32px" height="32px" viewBox="0 0 32 32" version="1.1" xmlns="http://www.w3.org/2000/svg" xmlns:xlink="http://www.w3.org/1999/xlink">
    <!-- Generator: Sketch 42 (36781) - http://www.bohemiancoding.com/sketch -->
    <title>lift</title>
    <desc>Created with Sketch.</desc>
    <defs></defs>
    <g id="Page-3" stroke="none" stroke-width="1" fill="none" fill-rule="evenodd">
        <g id="lift" fill-rule="nonzero" fill="#E6E6E6">
            <path d="M1.33333333,0 C2.66666667,0 2.66666667,0 2.66666667,1.33333333 L2.66666667,30.6666667 C2.66666667,32 2.66666667,32 1.33333333,32 C0,32 0,32 0,30.6666667 L0,1.33333333 C0,0 0,0 1.33333333,0 Z M1.33333333,0 L30.6666667,0 C32,0 32,0 32,1.33333333 C32,2.66666667 32,2.66666667 30.6666667,2.66666667 L1.33333333,2.66666667 C0,2.66666667 0,2.66666667 0,1.33333333 C0,0 0,0 1.33333333,0 Z M17.76,14.3466667 C16.6666667,14.3466667 16.6666667,14.3466667 17.28,13.44 L20.9066667,8.26666667 C21.3333333,7.6 21.3333333,7.6 21.76,8.26666667 L25.3866667,13.44 C26,14.3466667 26,14.3466667 24.9066667,14.3466667 L17.76,14.3466667 Z M17.76,17.6533333 L24.9066667,17.6533333 C26,17.6533333 26,17.6533333 25.3866667,18.56 L21.76,23.7333333 C21.3333333,24.4 21.3333333,24.4 20.9066667,23.7333333 L17.28,18.56 C16.6666667,17.6533333 16.6666667,17.6533333 17.76,17.6533333 Z M30.6666667,0 C32,0 32,0 32,1.33333333 L32,30.6666667 C32,32 32,32 30.6666667,32 C29.3333333,32 29.3333333,32 29.3333333,30.6666667 L29.3333333,1.33333333 C29.3333333,0 29.3333333,0 30.6666667,0 Z M1.33333333,29.3333333 L30.6666667,29.3333333 C32,29.3333333 32,29.3333333 32,30.6666667 C32,32 32,32 30.6666667,32 L1.33333333,32 C0,32 0,32 0,30.6666667 C0,29.3333333 0,29.3333333 1.33333333,29.3333333 Z M7.12,5.36 C6.88,8.05333333 6.8,10.72 6.74666667,13.2266667 C5.73333333,13.3333333 5.17333333,13.5466667 5.2,13.8666667 L5.46666667,17.6533333 C5.6,19.6533333 6.77333333,20.9866667 9.25333333,20.9866667 C11.84,20.9866667 13.0666667,19.6533333 13.2,17.6533333 L13.4666667,13.8666667 C13.4933333,13.5466667 12.8533333,13.3866667 11.92,13.2266667 C11.84,10.72 11.7866667,8.05333333 11.52,5.36 C11.52,5.33333333 7.12,5.33333333 7.12,5.36 Z M9.30666667,22.4 C8.16,22.4 7.17333333,23.36 7.17333333,24.5866667 C7.17333333,25.76 8.16,26.6666667 9.30666667,26.6666667 C10.48,26.6666667 11.44,25.76 11.44,24.5866667 C11.44,23.36 10.48,22.4 9.30666667,22.4 Z" id="Shape" transform="translate(16.000000, 16.000000) scale(-1, 1) rotate(-180.000000) translate(-16.000000, -16.000000) "></path>
        </g>
    </g>
</svg>