<?xml version="1.0" encoding="UTF-8" standalone="no"?>
<svg width="37px" height="11px" viewBox="0 0 37 11" version="1.1" xmlns="http://www.w3.org/2000/svg" xmlns:xlink="http://www.w3.org/1999/xlink">
    <!-- Generator: Sketch 3.7.2 (28276) - http://www.bohemiancoding.com/sketch -->
    <title>Combined Shape</title>
    <desc>Created with Sketch.</desc>
    <defs></defs>
    <g id="Page-2" stroke="none" stroke-width="1" fill="none" fill-rule="evenodd">
        <g id="Group-10" transform="translate(-1319.000000, -697.000000)" fill="#808080">
            <path d="M1325.51376,700.637322 C1325.51376,702.225405 1324.22628,703.513275 1322.6386,703.513275 C1321.0517,703.513275 1319.76581,702.225405 1319.76581,700.637322 C1319.76581,699.051216 1321.0517,697.762951 1322.6386,697.762951 C1324.22589,697.762951 1325.51376,699.051216 1325.51376,700.637322 Z M1329.00003,705.605669 L1328.9494,705.605669 C1328.97194,705.66935 1328.98856,705.734614 1329.00003,705.803437 L1329.00003,705.975496 C1329.00003,706.558519 1328.54239,707.036328 1327.96609,707.064807 C1327.94671,707.065202 1327.92772,707.065202 1327.90993,707.065202 L1327.55315,707.065202 L1327.55315,707.066784 L1321.14861,707.066784 C1320.5466,707.066784 1320.05811,706.578691 1320.05811,705.975496 C1320.05811,705.373488 1320.54699,704.884604 1321.14861,704.884604 L1326.81864,704.884604 L1326.81864,700.046389 C1326.81864,699.443194 1327.30752,698.953914 1327.90993,698.953914 C1328.51193,698.953914 1329.00003,699.443194 1329.00003,700.046389 L1329.00003,705.605669 L1329.00003,705.605669 Z M1330.8021,707.06718 C1330.8021,707.06718 1330.78904,702.85431 1330.78904,700.214492 C1330.78904,697.783914 1333.00287,697.373346 1336.01251,697.91721 C1336.01251,697.91721 1336.1019,697.934219 1336.25537,697.969026 L1336.25656,697.969026 C1336.36494,697.961511 1336.47806,697.963488 1336.59356,697.978123 L1353.01192,700.388529 C1354.01501,700.517079 1355.363,701.125415 1355.363,702.755425 L1355.363,707.06718 L1330.8021,707.06718 L1330.8021,707.06718 Z" id="Combined-Shape"></path>
        </g>
    </g>
</svg>