<?xml version="1.0" encoding="UTF-8" standalone="no"?>
<svg width="28px" height="26px" viewBox="0 0 28 26" version="1.1" xmlns="http://www.w3.org/2000/svg" xmlns:xlink="http://www.w3.org/1999/xlink">
    <!-- Generator: Sketch 3.7.2 (28276) - http://www.bohemiancoding.com/sketch -->
    <title>Combined Shape</title>
    <desc>Created with Sketch.</desc>
    <defs></defs>
    <g id="Page-2" stroke="none" stroke-width="1" fill="none" fill-rule="evenodd">
        <g id="Group-10" transform="translate(-57.000000, -32.000000)" fill="#808080">
            <path d="M60.5167883,37.4112449 C61.9912722,37.4112449 63.1865775,36.2083607 63.1865775,34.7245277 C63.1865775,33.2406947 61.9912722,32.0378105 60.5167883,32.0378105 C59.0423044,32.0378105 57.8469991,33.2406947 57.8469991,34.7245277 C57.8469991,36.2083607 59.0423044,37.4112449 60.5167883,37.4112449 Z M62.8018194,43.046858 L73.0699571,52.899754 C71.8697851,52.899754 70.5362608,52.6438346 69.3360888,52.2599555 C68.8026791,52.1319959 66.935745,51.8760765 66.1356303,52.5158749 C64.4020487,54.1793508 62.9351718,56.3546655 62.1350572,57.1224237 C61.3349426,57.8901818 60.1347706,57.6342624 58.9345987,56.4826252 C57.8677792,55.4589477 57.4677219,54.1793508 58.2678365,53.4115927 C59.2013036,52.7717943 61.468295,51.2362781 63.2018767,49.7007618 C64.0019913,48.9330036 63.601934,46.8856487 63.4685816,46.6297293 C62.9351718,45.4780921 62.8018194,44.1984952 62.8018194,43.046858 Z M81.4711607,34.9853977 C76.5371205,30.1229296 69.8694986,31.9143652 65.735573,35.7531558 C64.2686962,37.1607124 63.2018767,38.952148 62.9351718,40.8715433 L75.3369486,52.7717943 C77.3372351,52.3879152 79.2041693,51.4921974 80.6710461,50.0846408 C84.6716192,46.1178905 86.5385534,39.7199061 81.4711607,34.9853977 Z" id="Combined-Shape"></path>
        </g>
    </g>
</svg>