<?xml version="1.0" encoding="UTF-8" standalone="no"?>
<svg width="33px" height="32px" viewBox="0 0 33 32" version="1.1" xmlns="http://www.w3.org/2000/svg" xmlns:xlink="http://www.w3.org/1999/xlink">
    <!-- Generator: Sketch 3.7.2 (28276) - http://www.bohemiancoding.com/sketch -->
    <title>Group 7</title>
    <desc>Created with Sketch.</desc>
    <defs></defs>
    <g id="Page-2" stroke="none" stroke-width="1" fill="none" fill-rule="evenodd">
        <g id="Group-10" transform="translate(-777.000000, -28.000000)" fill="#808080">
            <g id="Group-7" transform="translate(777.798595, 28.477752)">
                <polygon id="Shape" points="32.0374707 30.9003383 0 30.9003383 0 17.8339095 32.0374707 17.8339095"></polygon>
                <g id="Group" transform="translate(12.992974, 0.000000)">
                    <ellipse id="Oval" cx="3.02576112" cy="3.00174715" rx="1.77985948" ry="1.76573362"></ellipse>
                    <path d="M3.02576112,5.82692093 C1.45556909,5.82692093 0.177985948,4.55947734 0.177985948,3.00174715 C0.177985948,1.44401695 1.45556909,0.176573362 3.02576112,0.176573362 C4.59595316,0.176573362 5.8735363,1.44401695 5.8735363,3.00174715 C5.8735363,4.55947734 4.59595316,5.82692093 3.02576112,5.82692093 L3.02576112,5.82692093 Z M3.02576112,2.2954537 C2.63312412,2.2954537 2.31381733,2.61222631 2.31381733,3.00174715 C2.31381733,3.39126798 2.63312412,3.70804059 3.02576112,3.70804059 C3.41839813,3.70804059 3.73770492,3.39126798 3.73770492,3.00174715 C3.73770492,2.61222631 3.41839813,2.2954537 3.02576112,2.2954537 L3.02576112,2.2954537 Z" id="Shape"></path>
                </g>
                <path d="M18.8665105,7.23950782 L13.1709602,7.23950782 C10.9386604,7.23950782 9.25526932,9.21324486 9.25526932,11.8304152 L9.25526932,16.7744694 L19.5784543,16.7744694 L19.5784543,14.655589 L11.3911007,14.655589 C11.3911007,14.655589 11.3964403,11.6375971 11.4039157,11.5415412 C11.4558876,11.3031672 11.6694707,11.1241218 11.9250585,11.1241218 C12.2194473,11.1241218 12.4590164,11.3617895 12.4590164,11.6538419 L12.4590164,13.5961488 L19.5784543,13.5961488 L19.5784543,11.6538419 C19.5784543,11.3617895 19.8180234,11.1241218 20.1124122,11.1241218 C20.368,11.1241218 20.5815831,11.3031672 20.633911,11.5415412 C20.6410304,11.6375971 20.64637,16.7744694 20.64637,16.7744694 L22.7822014,16.7744694 L22.7822014,11.8304152 C22.7822014,9.21324486 21.0988103,7.23950782 18.8665105,7.23950782 L18.8665105,7.23950782 Z" id="Shape"></path>
            </g>
        </g>
    </g>
</svg>