<?xml version="1.0" encoding="UTF-8"?>
<svg width="101px" height="26px" viewBox="0 0 101 26" version="1.1" xmlns="http://www.w3.org/2000/svg" xmlns:xlink="http://www.w3.org/1999/xlink">
    <!-- Generator: Sketch 42 (36781) - http://www.bohemiancoding.com/sketch -->
    <title>spaces</title>
    <desc>Created with Sketch.</desc>
    <defs></defs>
    <g id="App" stroke="none" stroke-width="1" fill="none" fill-rule="evenodd">
        <g id="spaces" fill="#51AE45">
            <text font-family="Archer-Bold, Archer" font-size="24" font-weight="bold">
                <tspan x="31" y="19">spaces</tspan>
            </text>
            <g id="matrix" fill-rule="nonzero">
                <path d="M6.02247191,0 C2.69633925,0 0,2.69604929 0,6.02218195 C0,9.34831461 2.69633925,12.0446539 6.02247191,12.0446539 C6.02450163,12.0446539 6.02653135,12.0443639 6.02856107,12.0443639 L12.0446539,12.0443639 L12.0446539,6.02218195 C12.0446539,2.69604929 9.34831461,0 6.02247191,0 Z M5.50016602,8 C4.11950458,8 3,6.88066144 3,5.49983398 C3,4.11900651 4.11933856,3 5.50016602,3 C6.88099349,3 8,4.11917253 8,5.5 C8,6.88082747 6.88082747,8 5.50016602,8 Z" id="Shape"></path>
                <path d="M12.0443639,19.066092 L12.0443639,13.0499992 L6.02247191,13.0499992 C2.69633925,13.0499992 0,15.7460485 0,19.0721812 C0,22.3983138 2.69633925,25.0943631 6.02247191,25.0943631 C9.34860457,25.0943631 12.0449438,22.3983138 12.0449438,19.0721812 C12.0446539,19.0698615 12.0443639,19.0678318 12.0443639,19.066092 Z M5.50016602,22.0499992 C4.11950458,22.0499992 3,20.9308639 3,19.5500822 C3,18.1693006 4.11933856,17.0499992 5.50016602,17.0499992 C6.88099349,17.0499992 8,18.1691346 8,19.5500822 C7.99983398,20.9306978 6.88082747,22.0499992 5.50016602,22.0499992 Z" id="Shape"></path>
                <path d="M19.06216,0 C15.7363173,0 13.039978,2.69604929 13.039978,6.02218195 C13.039978,6.02450163 13.040268,6.02653135 13.040268,6.02827111 L13.040268,12.0443639 L19.0601303,12.0443639 L19.0615801,12.0443639 C22.3885826,12.0443639 25.0846319,9.34802465 25.0846319,6.02218195 C25.0846319,2.69633925 22.3885826,0 19.06216,0 Z M19.539812,8 C18.1593166,8 17.039978,6.88066144 17.039978,5.49983398 C17.039978,4.11900651 18.1593166,3 19.539812,3 C20.9204734,3 22.039978,4.11917253 22.039978,5.5 C22.039978,6.88082747 20.9206395,8 19.539812,8 Z" id="Shape"></path>
                <path d="M19.06187,13.0499992 L13.039978,13.0499992 L13.039978,19.0724711 C13.039978,22.3983138 15.7363173,25.0946531 19.06216,25.0946531 C22.3885826,25.0946531 25.0846319,22.3983138 25.0846319,19.0724711 C25.0843419,15.7460485 22.3882926,13.0499992 19.06187,13.0499992 Z M19.539812,22.0499992 C18.1593166,22.0499992 17.039978,20.9308639 17.039978,19.5500822 C17.039978,18.1693006 18.1591506,17.0499992 19.539812,17.0499992 C20.9204734,17.0499992 22.039978,18.1691346 22.039978,19.5500822 C22.039978,20.9306978 20.9206395,22.0499992 19.539812,22.0499992 Z" id="Shape"></path>
            </g>
        </g>
    </g>
</svg>