<?xml version="1.0" encoding="UTF-8"?>
<svg width="36px" height="36px" viewBox="0 0 36 36" version="1.1" xmlns="http://www.w3.org/2000/svg" xmlns:xlink="http://www.w3.org/1999/xlink">
    <!-- Generator: Sketch 42 (36781) - http://www.bohemiancoding.com/sketch -->
    <title>football</title>
    <desc>Created with Sketch.</desc>
    <defs></defs>
    <g id="Page-3" stroke="none" stroke-width="1" fill="none" fill-rule="evenodd">
        <g id="football" fill-rule="nonzero" fill="#808080">
            <path d="M9.70283865,34.2629945 C10.5402549,34.7049947 11.2373432,34.9523547 11.7180954,35.1232348 C18.3077296,36.7863554 24.2540237,36.2725952 29.4585135,31.9363537 C34.5530093,27.6264322 36.9666061,20.7927498 35.7097457,14.2360395 C35.3640216,12.4325189 34.5781373,10.3176862 33.654471,8.7051016 C33.1877028,7.89018132 32.1729185,6.47769283 31.5656263,5.79851659 C30.5537659,4.6668802 29.0989814,3.43782377 27.812137,2.62692749 C24.7276559,0.683266809 20.8085745,-0.259701519 17.1529252,0.0619105931 C12.1818915,0.499226745 7.51475789,3.22274769 4.42717282,6.92259698 C1.62019588,10.2861902 0.13091936,15.0105158 0.362495441,19.4152693 C0.452259472,21.1229099 0.628451533,22.1357503 1.1075677,23.7109908 C1.79069994,25.9570316 2.52940415,27.4531521 3.84007661,29.2400728 C5.5249692,31.5371936 7.10696575,32.892434 9.70283865,34.2629945 L9.70283865,34.2629945 Z M7.87253001,32.3872338 C7.63923393,32.2652738 7.36843384,32.0761537 7.02328972,31.7957936 C5.55119721,30.5202332 4.3683168,29.0459127 3.5299845,27.4919121 C3.5299845,27.4919121 3.93412464,24.9269912 4.18294873,23.6652308 C5.63013723,23.7735508 7.11989775,24.088391 8.44699021,24.271631 C8.71314631,24.306831 8.96094239,24.341431 9.14341446,24.3699111 C9.23459049,24.3843111 9.31004252,24.3971111 9.36172653,24.4067111 C9.37736654,24.4107111 9.38652654,24.4119111 9.39644655,24.4139111 C9.47453457,24.4680311 9.67655464,24.6495912 9.93387473,24.9155512 C10.2000548,25.1906713 10.5311309,25.5521115 10.8938951,25.9642316 C11.6194393,26.7885119 12.4747876,27.8153523 13.2160119,28.7676726 L13.8901881,29.6338329 C13.7651241,30.9267533 13.452224,32.1460338 13.468712,33.2997142 C11.7101114,33.0513941 10.2416708,32.776794 8.50180223,32.5787939 L8.50020223,32.5789539 L8.49900223,32.5792739 C8.30035416,32.5648739 7.87212601,32.3873538 7.87212601,32.3873538 L7.87253001,32.3872338 Z M14.1107322,33.4023942 L14.1079322,33.4023942 L14.1126522,33.4023942 L14.1107322,33.4023942 Z M14.1188122,33.3560742 C14.1029322,32.1084337 14.2347682,31.0003134 14.5501563,29.816273 C14.6248204,29.6203529 14.6686084,29.5905129 14.8373004,29.4871928 C14.9686925,29.4067928 15.2706526,29.2661928 15.6704447,29.0976727 C16.0702369,28.9291526 16.569677,28.7315926 17.1035932,28.5321125 C18.1715616,28.1331524 19.397262,27.7130322 20.3277664,27.4398321 L21.2635387,27.165432 L26.8229646,29.2220727 C26.8229646,29.2220727 26.3188244,31.9543937 25.9198683,33.3310342 C25.8583963,33.5103942 25.8395323,33.5289142 25.7701802,33.5935943 C23.4005114,34.8432747 21.7866749,35.4695549 19.6558541,35.4589549 C18.2051536,35.0486748 16.6905011,34.5249546 15.3511006,33.9815944 L15.3503006,33.9811944 L15.3491006,33.9815544 C14.9029045,33.8134343 14.5275403,33.6022743 14.1183282,33.3560742 L14.1188122,33.3560742 Z M4.05911669,22.9290706 L2.3736801,16.2940682 C2.3736801,16.2940682 4.82633695,12.5369589 6.06009338,10.6637303 L6.29439347,10.6820103 C7.97667805,10.8097663 9.50497058,10.9480584 10.0593588,11.0225264 C10.2441908,11.0473664 10.4385869,11.0784904 10.600679,11.1084224 C10.762427,11.1383024 10.9050191,11.1723865 10.9358631,11.1827225 C10.9862151,11.1996425 11.0114991,11.2091625 11.0212551,11.2138825 C11.0309751,11.2186825 11.0220551,11.2102825 11.0277351,11.2187225 C11.0261351,11.2159225 11.0301351,11.2241225 11.0341351,11.2364425 C11.0381751,11.2487225 11.0431751,11.2665625 11.0488951,11.2896225 C11.0603351,11.3357905 11.0742151,11.4035705 11.0895111,11.4956266 L11.0898431,11.4968266 L11.0902431,11.4984266 C11.6238913,13.8671394 12.1234955,15.7513241 12.7050397,17.9809488 L11.6272793,19.8351895 C11.0468151,20.8336698 10.5219069,21.7194301 10.1136708,22.3926304 C9.70547465,23.0657106 9.40063855,23.5415908 9.31006252,23.6584708 C9.28714251,23.6880708 9.2743425,23.7025508 9.2679345,23.7078308 C9.2614945,23.7130308 9.2600145,23.7134308 9.24289449,23.7178308 C9.22101448,23.7238308 9.13144245,23.7298308 8.9770984,23.7175108 L8.9750984,23.7172708 C7.28943381,23.4531107 4.05923269,22.9289506 4.05923269,22.9289506 L4.05911669,22.9290706 Z M1.13942371,16.1941242 C1.14222371,16.1778042 1.14410371,16.1635642 1.14794371,16.1427402 C1.17630372,15.9876561 1.22401974,15.7501521 1.26547975,15.554808 C1.36400779,15.0906038 1.43677981,14.6219957 1.57623986,14.1744555 C2.09324404,12.5153229 2.6639842,10.8517143 3.5188525,9.34386182 C4.18104073,8.17590542 5.14770907,7.02315302 5.95844535,6.12900471 C6.35526949,5.69136055 6.58352957,5.45436847 6.73081362,5.34440843 C6.88066167,5.23254039 6.92586969,5.23065239 7.10976975,5.22592839 C7.11476975,5.22582439 7.11884975,5.22576439 7.12344975,5.22570439 C7.11940975,5.23386439 7.11712975,5.2401444 7.11164975,5.2504244 C7.01589772,5.44463647 6.87839367,5.71298856 6.72335361,6.00616466 C6.21831344,6.961901 6.1171294,7.20673708 5.92286934,7.93558533 C5.8078773,8.36705748 5.70915326,8.82605364 5.64259324,9.22185778 C5.57737322,9.60967392 5.5416412,9.91760602 5.55850521,10.1313541 L5.55570521,10.1366341 L5.55690521,10.1485941 L5.55652521,10.1493941 C5.56276521,10.2180541 5.5331652,10.2669181 5.5331652,10.2669181 C4.29565277,12.2245388 2.97045231,14.1273835 1.75911593,16.1014682 C1.55685586,16.1422482 1.33214378,16.1699922 1.13918771,16.1943202 L1.13942371,16.1941242 Z M21.4605627,26.5359918 C21.4569627,24.264711 20.6837265,19.9981895 20.6837265,19.9981895 C20.6837265,19.9981895 20.6990465,19.9801895 20.7098865,19.9673895 C22.4884831,18.2388689 25.8254723,14.7009197 25.8254723,14.7009197 L26.1874844,14.7759157 C27.0534127,14.9545358 27.851337,15.1862119 28.9373253,15.575244 C29.5200936,15.7840121 30.3396738,16.1162962 30.733814,16.3018842 L31.3680702,16.6005244 C31.5567863,19.0383492 31.9904784,23.3205107 31.9904784,23.3205107 C30.5755379,25.3225914 28.6176172,27.190472 27.0297447,28.5658725 L21.4605627,26.5359918 Z M13.2741559,17.7197887 C13.2741559,17.7197887 12.0370395,13.1002791 11.6491233,11.1713505 L11.6272433,11.0025304 L12.5968237,10.0207741 C13.2459719,9.36382183 14.2113602,8.4205695 15.0289845,7.63535723 C15.4378006,7.24274509 15.8104088,6.88941297 16.0871289,6.63202488 C16.2302329,6.49529683 16.370181,6.37320879 16.515381,6.24514075 L23.2634194,7.8295293 C23.2634194,7.8295293 25.019364,12.4266749 25.2850561,14.3610716 C25.2850561,14.3610716 22.6201431,17.4260686 21.0456746,18.8565891 C20.6452825,19.2178693 20.3218103,19.5463094 20.3218103,19.5463094 C18.7801538,19.3520293 15.7077367,18.533149 15.7077367,18.533149 C15.7077367,18.533149 14.0554162,18.0768689 13.2741599,17.7197887 L13.2741559,17.7197887 Z M32.7214427,23.4418707 C32.3834265,21.22303 32.2056905,18.6531491 31.9534624,16.4562043 L32.2265585,14.8940918 C32.3745465,14.0476555 32.5452426,13.1235071 32.6909987,12.3700789 C32.8367467,11.6167066 32.9643427,11.0121024 33.0018628,10.8817344 C33.0124228,10.8450943 33.0175828,10.8266383 33.0175828,10.8266383 C33.3254229,10.7506423 33.635111,10.7194783 33.9289831,10.6873183 L34.2390772,11.5816466 L34.2398772,11.5820306 C35.5464416,15.0398598 35.5991497,18.7869491 34.8131814,21.9766702 C34.6288973,22.7245505 34.4370813,23.3787507 34.2173812,24.077831 C34.1885412,24.169671 34.1729192,24.204311 34.1569632,24.245111 C33.664775,23.9783109 33.1497748,23.7155108 32.7216347,23.4419107 L32.7214427,23.4418707 Z M7.92169403,4.42088011 C8.25383415,4.16287202 8.65635829,3.85935592 8.9821304,3.62881583 C10.3072829,2.69103551 10.9643391,2.3734994 12.9296158,1.72201917 C13.4040839,1.56473912 13.9774921,1.38969906 14.2250802,1.32415503 L14.1363842,1.47788309 L13.8343081,2.00377127 L13.1493279,2.23574735 C12.2331435,2.54678746 10.0542908,3.47306378 8.64714228,4.14698802 C8.22108614,4.35104009 8.08621409,4.3766161 7.92169803,4.42088011 L7.92169403,4.42088011 Z M16.433377,5.56374451 L16.0586849,4.86015226 C15.7910168,4.35763209 15.4787887,3.8058399 15.2053046,3.34468374 C14.9319125,2.88367558 14.7092844,2.52598345 14.5732883,2.35968739 L14.4960843,2.26491136 L14.6970684,1.88765923 C14.9622205,1.38996306 15.0900725,1.16910698 15.2129926,1.07525095 C15.3365966,0.980866913 15.5362687,0.9430389 16.0229609,0.866794873 C18.9414899,0.409542714 21.2379747,0.653974799 24.5308158,1.77716319 C25.6445122,2.22029134 27.6042009,3.21581569 27.6042009,3.21581569 L27.795537,5.36838044 C27.795537,5.36838044 25.3049081,6.74302492 23.9979196,7.16688507 C23.8004036,7.22918109 23.6457875,7.24071309 23.6457875,7.24071309 C23.6457875,7.24071309 18.7862578,6.00728866 16.433321,5.56371251 L16.433377,5.56374451 Z M32.9741828,10.1862781 C31.5027782,8.45890552 28.4100772,5.50688449 28.4100772,5.50688449 L28.4097412,5.50568449 L28.4069412,5.49960449 C28.4069412,5.49960449 28.3519451,4.36454409 28.3265651,3.79823989 C28.3265651,3.79823989 28.4227252,3.87137592 28.5144852,3.94897995 L28.5156852,3.95057995 L28.5172852,3.95137995 C30.865646,5.63390053 32.6245986,7.90214132 33.4931549,9.861854 L33.4935549,9.86345401 C33.5304349,9.92700203 33.561419,9.99788205 33.590623,10.0557221 C33.3904509,10.1164341 32.9736148,10.1856421 32.9736148,10.1856421 L32.9741828,10.1862781 Z" id="Shape"></path>
        </g>
    </g>
</svg>