<?xml version="1.0" encoding="UTF-8"?>
<svg width="41px" height="40px" viewBox="0 0 41 40" version="1.1" xmlns="http://www.w3.org/2000/svg" xmlns:xlink="http://www.w3.org/1999/xlink">
    <!-- Generator: Sketch 42 (36781) - http://www.bohemiancoding.com/sketch -->
    <title>theater</title>
    <desc>Created with Sketch.</desc>
    <defs></defs>
    <g id="Page-3" stroke="none" stroke-width="1" fill="none" fill-rule="evenodd">
        <g id="theater" transform="translate(0.500000, 0.000000)" fill-rule="nonzero" fill="#808080">
            <path d="M2.39757576,17.2315152 C2.01818182,14.7640404 5.56121212,14.0149495 6.13050505,16.5353535 L7.10060606,21.3547475 L10.7070707,21.3656566 C11.7620202,21.3656566 12.310303,22.1983838 12.310303,22.989899 L12.310303,29.5385859 C12.310303,31.1305051 10.0432323,31.120404 10.0432323,29.5066667 L10.0432323,24.4137374 L5.43434343,24.4137374 C4.35878788,24.4137374 3.68363636,23.6751515 3.51515152,22.8315152 L2.39757576,17.2315152 Z" id="Shape"></path>
            <polygon id="Shape" points="0 0 0 2.05979798 40.4040404 15.5446465 40.4040404 0"></polygon>
            <path d="M4.08444444,14.5741414 C5.25494949,14.5741414 6.21454545,13.6250505 6.21454545,12.4545455 C6.22505051,11.2840404 5.2759596,10.3244444 4.09494949,10.3244444 C2.92444444,10.3139394 1.96484848,11.2630303 1.96484848,12.4335354 C1.95434343,13.6145455 2.90343434,14.5636364 4.08444444,14.5741414 Z" id="Shape"></path>
            <path d="M0.0246464646,19.7838384 C-0.228686869,18.4129293 1.56444444,18.0860606 1.81777778,19.4569697 L2.60848485,23.7490909 C2.78747475,24.6456566 3.44161616,25.4048485 4.38020202,25.689697 C4.66505051,25.7737374 4.96040404,25.7842424 5.24525253,25.8056566 L7.85010101,25.8157576 C9.23151515,25.8056566 9.23151515,27.6294949 7.83959596,27.6294949 L5.09777778,27.6189899 C4.6759596,27.6189899 4.25414141,27.5559596 3.83191919,27.4294949 C2.2189899,26.9442424 1.09050505,25.6153535 0.794747475,24.0654545 L0.0246464646,19.7838384 Z" id="Shape"></path>
            <path d="M16.4440404,21.8189899 C16.0646465,19.3620202 19.6076768,18.6133333 20.1878788,21.1341414 L21.1474747,25.9535354 L24.7543434,25.9535354 C25.8088889,25.9535354 26.3575758,26.7971717 26.3575758,27.5777778 L26.3575758,34.1264646 C26.3575758,35.7187879 24.0905051,35.7187879 24.0905051,34.1054545 L24.0905051,29.0012121 L19.4816162,29.0012121 C18.4161616,29.0012121 17.7414141,28.2630303 17.5725253,27.4189899 L16.4440404,21.8189899 Z" id="Shape"></path>
            <path d="M18.1313131,19.1620202 C19.3022222,19.1721212 20.2618182,18.2230303 20.2618182,17.0525253 C20.2719192,15.8711111 19.3232323,14.9224242 18.1523232,14.9115152 C16.9709091,14.9115152 16.0222222,15.8610101 16.0113131,17.0311111 C16.0117172,18.2020202 16.9612121,19.1620202 18.1313131,19.1620202 Z" id="Shape"></path>
            <path d="M14.0711111,24.3818182 C13.8181818,23.0105051 15.6218182,22.6840404 15.8642424,24.0444444 L16.6658586,28.3466667 C16.8448485,29.2327273 17.4989899,30.0028283 18.4266667,30.2767677 C18.7220202,30.3612121 19.0173737,30.3713131 19.3022222,30.3927273 L21.9066667,30.4137374 C23.2880808,30.4032323 23.2779798,32.2274747 21.8856566,32.2173737 L19.1434343,32.2068687 C18.7321212,32.2068687 18.310303,32.1539394 17.8888889,32.0274747 C16.2646465,31.5426263 15.1365657,30.2028283 14.8412121,28.6529293 L14.0711111,24.3818182 Z" id="Shape"></path>
            <path d="M30.5018182,26.4173737 C30.1111111,23.949899 33.6654545,23.2109091 34.2347475,25.7212121 L35.2048485,30.5406061 L38.8113131,30.5507071 C39.8553535,30.5507071 40.4036364,31.3947475 40.4036364,32.1749495 L40.4036364,38.7240404 C40.4036364,40.3163636 38.1365657,40.3058586 38.1365657,38.6925253 L38.1365657,33.5987879 L33.5385859,33.5987879 C32.4626263,33.5987879 31.7878788,32.8610101 31.6189899,32.0173737 L30.5018182,26.4173737 Z" id="Shape"></path>
            <path d="M32.1785859,23.759596 C33.359596,23.759596 34.3086869,22.8105051 34.3191919,21.64 C34.3191919,20.469899 33.3705051,19.510303 32.199596,19.510303 C31.0294949,19.4993939 30.069899,20.4484848 30.069899,21.6189899 C30.0589899,22.8 31.0076768,23.7490909 32.1785859,23.759596 Z" id="Shape"></path>
            <path d="M28.1183838,28.9692929 C27.8755556,27.5979798 29.6686869,27.2711111 29.9220202,28.6420202 L30.7127273,32.9341414 C30.8917172,33.830303 31.5458586,34.600404 32.4844444,34.8743434 C32.7692929,34.9587879 33.0646465,34.969697 33.3494949,34.990303 L35.9543434,35.0012121 C37.3353535,34.990303 37.3252525,36.8145455 35.9329293,36.8145455 L33.2016162,36.7935354 C32.7793939,36.7935354 32.3579798,36.7410101 31.9357576,36.6141414 C30.3224242,36.139798 29.1943434,34.8008081 28.8985859,33.250101 L28.1183838,28.9692929 Z" id="Shape"></path>
        </g>
    </g>
</svg>